<?xml version="1.0" encoding="UTF-8"?>
<svg width="451px" height="451px" viewBox="0 0 451 451" version="1.1" xmlns="http://www.w3.org/2000/svg" xmlns:xlink="http://www.w3.org/1999/xlink">
    <!-- Generator: Sketch 58 (84663) - https://sketch.com -->
    <title>drop</title>
    <desc>Created with Sketch.</desc>
    <g id="Page-1" stroke="none" stroke-width="1" fill="none" fill-rule="evenodd">
        <g id="drop" transform="translate(8.000000, 8.000000)">
            <path d="M241.607547,117.224071 C235.70566,108.530333 230.498113,100.532095 225.637736,93.2293551 C224.943396,92.1861065 223.901887,91.142858 222.860377,90.447359 C218.69434,87.6653629 213.139623,89.056361 210.362264,93.2293551 C205.849057,100.532095 200.641509,108.182584 194.392453,117.224071 C166.966038,157.563014 126,218.419179 126,253.194129 C126,278.579844 136.415094,301.531311 153.079245,318.223288 C169.743396,334.567515 192.656604,345 218,345 C243.343396,345 266.256604,334.567515 282.920755,317.875538 C299.584906,301.183562 310,278.232094 310,252.84638 C310,218.071429 269.033962,157.563014 241.607547,117.224071 Z M270.422642,305.356556 C256.883019,318.918787 238.483019,326.917026 218,326.917026 C197.516981,326.917026 179.116981,318.571037 165.577358,305.356556 C152.037736,291.794325 144.05283,273.363601 144.05283,252.84638 C144.05283,223.635421 183.283019,165.561253 209.320755,126.961057 C212.445283,122.440314 215.222642,117.91957 218,114.094326 C220.777358,117.91957 223.554717,122.440314 226.679245,126.961057 C252.716981,165.909003 291.94717,223.635421 291.94717,252.84638 C291.94717,273.363601 283.615094,291.794325 270.422642,305.356556 Z" id="Shape" fill="#FFFFFF" fill-rule="nonzero"></path>
            <path d="M271.622927,247.021948 C266.749129,246.674486 262.571588,250.496564 262.22346,255.361025 C261.875331,263.005179 259.438432,270.301872 255.60902,276.55618 C251.779607,282.810488 246.209552,288.369873 239.595112,291.844488 C235.417571,294.276719 233.676928,299.836104 236.113827,304.005643 C238.898855,308.870104 244.46891,310.259951 248.646451,307.82772 C258.045919,302.615797 265.704744,294.971642 270.926671,286.285104 C276.496726,277.598565 279.629881,267.174718 279.97801,256.40341 C280.326138,251.538948 276.496726,247.36941 271.622927,247.021948 Z" id="Path" fill="#FFFFFF" fill-rule="nonzero"></path>
            <circle id="Oval" stroke="#FFFFFF" stroke-width="15" cx="218" cy="217" r="183"></circle>
            <circle id="Oval" stroke="#FFFFFF" stroke-width="15" cx="217.5" cy="217.5" r="217.5"></circle>
        </g>
    </g>
</svg>