<?xml version="1.0" encoding="UTF-8"?>
<svg width="382px" height="382px" viewBox="0 0 382 382" version="1.1" xmlns="http://www.w3.org/2000/svg" xmlns:xlink="http://www.w3.org/1999/xlink">
    <!-- Generator: Sketch 58 (84663) - https://sketch.com -->
    <title>drop</title>
    <desc>Created with Sketch.</desc>
    <g id="Page-1" stroke="none" stroke-width="1" fill="none" fill-rule="evenodd">
        <g id="drop" transform="translate(8.000000, 8.000000)">
            <path d="M206.607547,83.2240712 C200.70566,74.5303335 195.498113,66.5320948 190.637736,59.2293551 C189.943396,58.1861065 188.901887,57.142858 187.860377,56.447359 C183.69434,53.6653629 178.139623,55.056361 175.362264,59.2293551 C170.849057,66.5320948 165.641509,74.182584 159.392453,83.2240712 C131.966038,123.563014 91,184.419179 91,219.194129 C91,244.579844 101.415094,267.531311 118.079245,284.223288 C134.743396,300.567515 157.656604,311 183,311 C208.343396,311 231.256604,300.567515 247.920755,283.875538 C264.584906,267.183562 275,244.232094 275,218.84638 C275,184.071429 234.033962,123.563014 206.607547,83.2240712 Z M235.422642,271.356556 C221.883019,284.918787 203.483019,292.917026 183,292.917026 C162.516981,292.917026 144.116981,284.571037 130.577358,271.356556 C117.037736,257.794325 109.05283,239.363601 109.05283,218.84638 C109.05283,189.635421 148.283019,131.561253 174.320755,92.9610575 C177.445283,88.4403139 180.222642,83.9195702 183,80.0943256 C185.777358,83.9195702 188.554717,88.4403139 191.679245,92.9610575 C217.716981,131.909003 256.94717,189.635421 256.94717,218.84638 C256.94717,239.363601 248.615094,257.794325 235.422642,271.356556 Z" id="Shape" fill="#FFFFFF" fill-rule="nonzero"></path>
            <path d="M236.622927,213.021948 C231.749129,212.674486 227.571588,216.496564 227.22346,221.361025 C226.875331,229.005179 224.438432,236.301872 220.60902,242.55618 C216.779607,248.810488 211.209552,254.369873 204.595112,257.844488 C200.417571,260.276719 198.676928,265.836104 201.113827,270.005643 C203.898855,274.870104 209.46891,276.259951 213.646451,273.82772 C223.045919,268.615797 230.704744,260.971642 235.926671,252.285104 C241.496726,243.598565 244.629881,233.174718 244.97801,222.40341 C245.326138,217.538948 241.496726,213.36941 236.622927,213.021948 Z" id="Path" fill="#FFFFFF" fill-rule="nonzero"></path>
            <circle id="Oval" stroke="#FFFFFF" stroke-width="15" cx="183" cy="183" r="183"></circle>
        </g>
    </g>
</svg>