<?xml version="1.0" encoding="UTF-8"?>
<svg width="514px" height="450px" viewBox="0 0 514 450" version="1.1" xmlns="http://www.w3.org/2000/svg" xmlns:xlink="http://www.w3.org/1999/xlink">
    <!-- Generator: Sketch 58 (84663) - https://sketch.com -->
    <title>history</title>
    <desc>Created with Sketch.</desc>
    <g id="Page-1" stroke="none" stroke-width="1" fill="none" fill-rule="evenodd">
        <g id="history" fill="#FFFFFF" fill-rule="nonzero">
            <path d="M257.046714,129 L257,241.316471 C257,245.581016 258.696638,249.657269 261.714338,252.667153 L342.246734,333 L365,310.298637 L289.181007,234.668441 L289.22772,129 L257.046714,129 Z" id="Path"></path>
            <path d="M289.12535,0 C176.062697,0 82.4891986,84.014047 66.8172954,192.857276 L0,192.857276 L80.3124417,273.214319 L160.624883,192.857276 L99.2765264,192.857276 C114.64346,101.792369 193.803172,32.1431904 289.12535,32.1431904 C395.413383,32.1431904 481.875583,118.652473 481.875583,225.000467 C481.875583,331.34846 395.414316,417.857743 289.12535,417.857743 C229.377385,417.857743 173.97454,390.800205 137.127288,343.621213 L111.810132,363.396469 C154.789422,418.422297 219.415971,450 289.12535,450 C413.123082,450 514,349.051197 514,225.000467 C514,100.949737 413.123082,0 289.12535,0 L289.12535,0 Z" id="Path"></path>
        </g>
    </g>
</svg>