<?xml version="1.0" encoding="UTF-8"?>
<svg width="449px" height="449px" viewBox="0 0 449 449" version="1.1" xmlns="http://www.w3.org/2000/svg" xmlns:xlink="http://www.w3.org/1999/xlink">
    <!-- Generator: Sketch 58 (84663) - https://sketch.com -->
    <title>mute</title>
    <desc>Created with Sketch.</desc>
    <g id="Page-1" stroke="none" stroke-width="1" fill="none" fill-rule="evenodd">
        <g id="mute" fill="#8E8E93" fill-rule="nonzero">
            <path d="M352.021,16.075 C352.021,9.995 348.501,4.235 343.061,1.675 C337.301,-1.205 330.901,-0.245 326.101,3.595 L184.341,116.555 L352.021,284.235 L352.021,16.075 L352.021,16.075 Z" id="Path"></path>
            <path d="M443.349,420.747 L27.349,4.747 C21.109,-1.493 10.965,-1.493 4.725,4.747 C-1.515,10.987 -1.515,21.131 4.725,27.371 L105.397,128.075 L96.021,128.075 C86.101,128.075 77.461,132.555 71.701,139.595 C66.901,145.035 64.021,152.395 64.021,160.075 L64.021,288.075 C64.021,305.675 78.421,320.075 96.021,320.075 L170.261,320.075 L326.101,444.555 C328.981,446.795 332.501,448.075 336.021,448.075 C338.261,448.075 340.821,447.435 343.061,446.475 C348.501,443.915 352.021,438.155 352.021,432.075 L352.021,374.699 L420.693,443.371 C423.829,446.507 427.925,448.075 432.021,448.075 C436.117,448.075 440.213,446.507 443.349,443.403 C449.589,437.131 449.589,427.019 443.349,420.747 Z" id="Path"></path>
        </g>
    </g>
</svg>