<?xml version="1.0" encoding="UTF-8"?>
<svg width="406px" height="512px" viewBox="0 0 406 512" version="1.1" xmlns="http://www.w3.org/2000/svg" xmlns:xlink="http://www.w3.org/1999/xlink">
    <!-- Generator: Sketch 58 (84663) - https://sketch.com -->
    <title>notification</title>
    <desc>Created with Sketch.</desc>
    <g id="Page-1" stroke="none" stroke-width="1" fill="none" fill-rule="evenodd">
        <g id="notification" fill="#FFFFFF" fill-rule="nonzero">
            <path d="M397.201,407.453 C395.696,406.476 384.369,398.541 373.027,374.536 C352.198,330.454 347.826,268.356 347.826,224.025 C347.826,223.832 347.822,223.641 347.815,223.449 C347.588,164.86 312.505,114.354 262.301,91.693 L262.301,57.036 C262.301,25.586 236.757,-5.68434189e-14 205.359,-5.68434189e-14 L200.64,-5.68434189e-14 C169.242,-5.68434189e-14 143.698,25.586 143.698,57.036 L143.698,91.691 C93.326,114.425 58.173,165.189 58.173,224.025 C58.173,268.356 53.801,330.453 32.972,374.536 C21.631,398.54 10.304,406.475 8.798,407.453 C2.456,410.388 -0.671,417.168 0.788,424.039 C2.261,430.978 8.747,435.762 15.83,435.762 L125.777,435.762 C126.391,477.903 160.785,512 203,512 C245.215,512 279.609,477.903 280.223,435.762 L390.17,435.762 C397.252,435.762 403.739,430.978 405.212,424.039 C406.669,417.168 403.543,410.387 397.201,407.453 Z M173.699,57.036 C173.699,42.155 185.785,30.049 200.641,30.049 L205.36,30.049 C220.216,30.049 232.302,42.155 232.302,57.036 L232.302,81.953 C222.834,79.996 213.033,78.966 202.996,78.966 C192.962,78.966 183.164,79.995 173.7,81.95 L173.7,57.036 L173.699,57.036 Z M203,481.951 C177.327,481.951 156.386,461.334 155.777,435.763 L250.222,435.763 C249.614,461.333 228.673,481.951 203,481.951 L203,481.951 Z M263.4,405.712 C263.397,405.712 50.015,405.712 50.015,405.712 C52.61,401.668 55.251,397.089 57.876,391.914 C77.98,352.271 88.174,295.785 88.174,224.025 C88.174,160.608 139.683,109.015 202.995,109.015 C266.307,109.015 317.816,160.608 317.816,224.075 C317.816,224.26 317.819,224.444 317.826,224.628 C317.883,296.1 328.076,352.383 348.124,391.914 C350.749,397.09 353.391,401.668 355.985,405.712 L263.4,405.712 Z" id="Shape"></path>
        </g>
    </g>
</svg>