<?xml version="1.0" encoding="UTF-8"?>
<svg width="234px" height="378px" viewBox="0 0 234 378" version="1.1" xmlns="http://www.w3.org/2000/svg" xmlns:xlink="http://www.w3.org/1999/xlink">
    <!-- Generator: Sketch 58 (84663) - https://sketch.com -->
    <title>insulin</title>
    <desc>Created with Sketch.</desc>
    <g id="Page-1" stroke="none" stroke-width="1" fill="none" fill-rule="evenodd">
        <g id="insulin" fill="#FFFFFF" fill-rule="nonzero">
            <path d="M41.876,100.55 L41.876,150.697 C41.876,156.219 46.353,160.697 51.876,160.697 L182.008,160.697 C187.531,160.697 192.008,156.219 192.008,150.697 L192.008,100.55 C192.008,95.028 187.531,90.55 182.008,90.55 L51.876,90.55 C46.353,90.551 41.876,95.028 41.876,100.55 Z M61.876,110.55 L172.008,110.55 L172.008,140.697 L61.876,140.697 L61.876,110.55 Z" id="Shape"></path>
            <path d="M116.942,230.627 C100.389,230.627 86.922,244.111 86.922,260.686 C86.922,277.26 100.389,290.744 116.942,290.744 C133.495,290.744 146.963,277.26 146.963,260.686 C146.962,244.111 133.495,230.627 116.942,230.627 Z M116.942,270.745 C111.417,270.745 106.922,266.232 106.922,260.686 C106.922,255.139 111.417,250.626 116.942,250.626 C122.467,250.626 126.963,255.139 126.963,260.686 C126.962,266.232 122.467,270.745 116.942,270.745 Z" id="Shape"></path>
            <path d="M184.594,250.769 L172.081,250.769 C166.558,250.769 162.081,255.247 162.081,260.769 C162.081,266.291 166.558,270.769 172.081,270.769 L184.594,270.769 C190.117,270.769 194.594,266.291 194.594,260.769 C194.594,255.247 190.117,250.769 184.594,250.769 Z" id="Path"></path>
            <path d="M61.803,250.769 L49.29,250.769 C43.767,250.769 39.29,255.247 39.29,260.769 C39.29,266.291 43.767,270.769 49.29,270.769 L61.803,270.769 C67.326,270.769 71.803,266.291 71.803,260.769 C71.803,255.247 67.326,250.769 61.803,250.769 Z" id="Path"></path>
            <path d="M126.942,205.524 L126.942,192.987 C126.942,187.465 122.465,182.987 116.942,182.987 C111.419,182.987 106.942,187.465 106.942,192.987 L106.942,205.524 C106.942,211.046 111.419,215.524 116.942,215.524 C122.465,215.524 126.942,211.047 126.942,205.524 Z" id="Path"></path>
            <path d="M116.942,306.015 C111.419,306.015 106.942,310.493 106.942,316.015 L106.942,328.551 C106.942,334.073 111.419,338.551 116.942,338.551 C122.465,338.551 126.942,334.073 126.942,328.551 L126.942,316.015 C126.942,310.493 122.465,306.015 116.942,306.015 Z" id="Path"></path>
            <path d="M143.804,0.286 C138.281,0.286 133.804,4.765 133.804,10.287 L133.804,50.433 L10,50.433 C4.477,50.433 5.68434189e-14,54.911 5.68434189e-14,60.433 L5.68434189e-14,368 C5.68434189e-14,373.522 4.477,378 10,378 L223.884,378 C229.407,378 233.884,373.522 233.884,368 L233.884,10.286 C233.884,4.764 229.407,0.286 223.884,0.286 L143.804,0.286 Z M213.884,358 L20,358 L20,70.433 L213.884,70.433 L213.884,358 Z M213.884,50.433 L153.803,50.433 L153.803,20.287 L213.884,20.287 L213.884,50.433 Z" id="Shape"></path>
        </g>
    </g>
</svg>