<?xml version="1.0" encoding="UTF-8"?>
<svg width="327px" height="392px" viewBox="0 0 327 392" version="1.1" xmlns="http://www.w3.org/2000/svg" xmlns:xlink="http://www.w3.org/1999/xlink">
    <!-- Generator: Sketch 58 (84663) - https://sketch.com -->
    <title>gas-station</title>
    <desc>Created with Sketch.</desc>
    <g id="Page-1" stroke="none" stroke-width="1" fill="none" fill-rule="evenodd">
        <g id="gas-station" fill="#FFFFFF" fill-rule="nonzero">
            <path d="M324.604222,51.3924777 L291.904068,18.7256197 C288.710463,15.5352665 283.537237,15.5352665 280.344399,18.7256197 C277.150794,21.9159728 277.150794,27.0839315 280.344399,30.273519 L307.264334,57.1660446 L280.344399,84.0585702 C278.811591,85.5898172 277.949387,87.6631257 277.949387,89.8329027 L277.949387,114.332855 C277.949387,132.349507 292.615291,146.999713 310.64954,146.999713 L310.64954,285.83252 C310.64954,290.338214 306.985363,293.999426 302.47431,293.999426 C297.964024,293.999426 294.29908,290.33898 294.29908,285.83252 L294.29908,269.499474 C294.29908,255.989281 283.298119,244.999521 269.774157,244.999521 L261.599693,244.999521 L261.599693,32.6668581 C261.599693,14.6502058 246.934556,0 228.89954,0 L65.4003066,0 C47.3660574,0 32.7001533,14.6502058 32.7001533,32.6668581 L32.7001533,326.666284 C14.6659042,326.666284 0,341.31649 0,359.333142 L0,383.833094 C0,388.34721 3.65651279,392 8.17522992,392 L286.124617,392 C290.643334,392 294.299847,388.34721 294.299847,383.833094 L294.299847,359.333142 C294.299847,341.317255 279.634709,326.666284 261.599693,326.666284 L261.599693,261.333333 L269.774923,261.333333 C274.28521,261.333333 277.950153,264.993779 277.950153,269.500239 L277.950153,285.833285 C277.950153,299.343478 288.951114,310.333238 302.475077,310.333238 C315.999039,310.333238 327,299.343478 327,285.833285 L327,57.1668102 C327,54.9970332 326.137029,52.9237248 324.604222,51.3924777 Z M228.89954,138.9844 C228.89954,143.498517 225.243027,147.151306 220.72431,147.151306 L73.5747701,147.151306 C69.0560529,147.151306 65.3995402,143.498517 65.3995402,138.9844 L65.3995402,40.8329984 C65.3995402,36.3188822 69.0560529,32.6660924 73.5747701,32.6660924 L220.72431,32.6660924 C225.243027,32.6660924 228.89954,36.3188822 228.89954,40.8329984 L228.89954,138.9844 Z" id="Shape"></path>
        </g>
    </g>
</svg>