<?xml version="1.0" encoding="UTF-8"?>
<svg width="471px" height="450px" viewBox="0 0 471 450" version="1.1" xmlns="http://www.w3.org/2000/svg" xmlns:xlink="http://www.w3.org/1999/xlink">
    <!-- Generator: Sketch 58 (84663) - https://sketch.com -->
    <title>settings</title>
    <desc>Created with Sketch.</desc>
    <g id="Page-1" stroke="none" stroke-width="1" fill="none" fill-rule="evenodd">
        <g id="settings" fill="#FFFFFF" fill-rule="nonzero">
            <path d="M250.279465,450 L220.719615,450 C196.811766,450 177.360018,431.416406 177.360018,408.574512 L177.360018,399.019922 C167.195801,395.917383 157.320439,392.000977 147.833285,387.310254 L140.746207,394.081348 C123.581385,410.501074 96.0858398,410.019434 79.4196152,394.075195 L58.5272695,374.115234 C41.8316074,358.181543 41.3514082,331.920703 58.5327891,315.522949 L65.6143477,308.757129 C60.7047246,299.692969 56.6064727,290.259668 53.3582285,280.546875 L43.3586777,280.546875 C19.451748,280.546875 0,261.963281 0,239.121387 L0,210.878613 C0,188.036719 19.451748,169.453125 43.3595977,169.453125 L53.3591484,169.453125 C56.6073926,159.741211 60.7056445,150.307031 65.6152676,141.242871 L58.5281895,134.472656 C41.3569277,118.08457 41.8306875,91.8210938 58.533709,75.8803711 L79.4278945,55.9186523 C96.1327559,39.9366211 123.621861,39.5375977 140.753566,55.9239258 L147.834205,62.6888672 C157.321359,57.9990234 167.196721,54.0826172 177.360938,50.9791992 L177.360938,41.4254883 C177.360938,18.5835938 196.811766,0 220.720535,0 L250.280385,0 C274.188234,0 293.639062,18.5835937 293.639062,41.4254883 L293.639062,50.9800781 C303.803279,54.0826172 313.678641,57.9990234 323.165795,62.6897461 L330.252873,55.9186523 C347.417695,39.4989258 374.91324,39.9805664 391.579465,55.9248047 L412.471811,75.8847656 C429.167473,91.818457 429.647672,118.079297 412.466291,134.477051 L405.384732,141.242871 C410.294355,150.307031 414.392607,159.740332 417.640852,169.453125 L427.640402,169.453125 C451.548252,169.453125 471,188.036719 471,210.878613 L471,239.121387 C471,261.963281 451.548252,280.546875 427.640402,280.546875 L417.640852,280.546875 C414.392607,290.258789 410.294355,299.692969 405.384732,308.757129 L412.471811,315.528223 C429.643072,331.916309 429.169313,358.179785 412.466291,374.120508 L391.572105,394.082227 C374.867244,410.064258 347.378139,410.463281 330.246434,394.076953 L323.165795,387.312012 C313.678641,392.001855 303.803279,395.918262 293.639063,399.02168 L293.639063,408.57627 C293.639063,431.416406 274.188234,450 250.279465,450 Z M152.446693,359.62207 C165.626414,367.069043 179.811609,372.694922 194.607633,376.343262 C200.701195,377.845313 204.958594,383.095898 204.958594,389.108496 L204.958594,408.574512 C204.958594,416.877539 212.030033,423.632813 220.720535,423.632813 L250.280385,423.632813 C258.970887,423.632813 266.042326,416.877539 266.042326,408.574512 L266.042326,389.108496 C266.042326,383.095898 270.299725,377.845313 276.393287,376.343262 C291.189311,372.694922 305.374506,367.069043 318.554227,359.62207 C323.977166,356.558203 330.88118,357.391406 335.336361,361.647949 L349.768096,375.437109 C355.990447,381.389063 365.982639,381.251074 372.052283,375.443262 L392.959348,355.469238 C399.014273,349.691309 399.216656,340.142871 392.964867,334.177734 L378.526693,320.383301 C374.072432,316.127637 373.200346,309.530566 376.406273,304.350293 C384.200771,291.759082 390.088271,278.206348 393.906867,264.069141 C395.479934,258.247266 400.975547,254.180566 407.267813,254.180566 L427.641322,254.180566 C436.331824,254.180566 443.403264,247.425293 443.403264,239.122266 L443.403264,210.879492 C443.403264,202.576465 436.331824,195.821191 427.641322,195.821191 L407.267813,195.821191 C400.974627,195.821191 395.479934,191.753613 393.906867,185.932617 C390.088271,171.79541 384.199852,158.242676 376.406273,145.651465 C373.200346,140.471191 374.072432,133.874121 378.526693,129.618457 L392.959348,115.829297 C399.198258,109.875586 399.035432,100.330664 392.964867,94.537793 L372.059643,74.5646484 C366.000117,68.7673828 356.006086,68.5977539 349.774535,74.559375 L335.337281,88.3538086 C330.88302,92.6103516 323.976246,93.4435547 318.555146,90.3796875 C305.375426,82.9327148 291.19023,77.3068359 276.394207,73.6584961 C270.300645,72.1564453 266.043246,66.9058594 266.043246,60.8932617 L266.043246,41.4254883 C266.043246,33.1224609 258.971807,26.3671875 250.281305,26.3671875 L220.721455,26.3671875 C212.030953,26.3671875 204.959514,33.1224609 204.959514,41.4254883 L204.959514,60.8915039 C204.959514,66.9041016 200.702115,72.1546875 194.608553,73.6567383 C179.812529,77.3050781 165.627334,82.930957 152.447613,90.3779297 C147.023754,93.440918 140.11974,92.6077148 135.665479,88.3520508 L121.233744,74.5628906 C115.011393,68.6109375 105.018281,68.7489258 98.9495566,74.5567383 L78.0424922,94.5307617 C71.9875664,100.308691 71.7851836,109.85625 78.0369727,115.822266 L92.4751465,129.616699 C96.9294082,133.872363 97.8014941,140.469434 94.5955664,145.649707 C86.8010684,158.240918 80.9135684,171.793652 77.0949727,185.930859 C75.5219062,191.752734 70.026293,195.819434 63.7340273,195.819434 L43.3595977,195.819434 C34.6690957,195.820313 27.5976562,202.575586 27.5976562,210.878613 L27.5976562,239.121387 C27.5976562,247.424414 34.6690957,254.179688 43.3595977,254.179688 L63.7331074,254.179688 C70.026293,254.179688 75.5209863,258.247266 77.0940527,264.068262 C80.9126484,278.205469 86.8010684,291.758203 94.5946465,304.349414 C97.8005742,309.529688 96.9284883,316.126758 92.4742266,320.382422 L78.0415723,334.171582 C71.8026621,340.125293 71.9654883,349.670215 78.0360527,355.463086 L98.9412773,375.43623 C105.000803,381.233496 114.994834,381.403125 121.226385,375.441504 L135.663639,361.64707 C138.94592,358.512012 145.7745,355.851563 152.446693,359.62207 L152.446693,359.62207 Z" id="Shape"></path>
            <path d="M235.5,323 C178.980543,323 133,279.037235 133,225 C133,170.962765 178.980543,127 235.5,127 C292.019457,127 338,170.962765 338,225 C338,279.037235 292.019457,323 235.5,323 Z M235.5,153.391382 C194.200965,153.391382 160.603232,185.514973 160.603232,225 C160.603232,264.485027 194.201885,296.608618 235.5,296.608618 C276.798115,296.608618 310.396768,264.485027 310.396768,225 C310.396768,185.514973 276.799035,153.391382 235.5,153.391382 L235.5,153.391382 Z" id="Shape"></path>
        </g>
    </g>
</svg>