<?xml version="1.0" encoding="UTF-8"?>
<svg width="480px" height="448px" viewBox="0 0 480 448" version="1.1" xmlns="http://www.w3.org/2000/svg" xmlns:xlink="http://www.w3.org/1999/xlink">
    <!-- Generator: Sketch 58 (84663) - https://sketch.com -->
    <title>speaker</title>
    <desc>Created with Sketch.</desc>
    <g id="Page-1" stroke="none" stroke-width="1" fill="none" fill-rule="evenodd">
        <g id="speaker" transform="translate(0.000000, -1.000000)" fill="#8E8E93" fill-rule="nonzero">
            <path d="M278.944,2.577 C273.376,-0.079 266.816,0.625 262.016,4.497 L106.368,129.009 L32,129.009 C14.368,129.009 0,143.377 0,161.009 L0,289.009 C0,306.673 14.368,321.009 32,321.009 L106.368,321.009 L261.984,445.521 C264.896,447.825 268.448,449.009 272,449.009 C274.368,449.009 276.736,448.465 278.944,447.409 C284.48,444.753 288,439.153 288,433.009 L288,17.009 C288,10.865 284.48,5.265 278.944,2.577 Z" id="Path"></path>
            <path d="M368.992,111.857 C362.688,105.649 352.576,105.745 346.368,111.985 C340.16,118.289 340.224,128.401 346.496,134.641 C370.688,158.513 384,190.609 384,225.009 C384,259.409 370.688,291.505 346.496,315.377 C340.224,321.553 340.16,331.697 346.368,338.001 C349.504,341.169 353.632,342.737 357.728,342.737 C361.792,342.737 365.856,341.201 368.992,338.097 C399.328,308.241 416,268.049 416,225.009 C416,181.969 399.328,141.777 368.992,111.857 Z" id="Path"></path>
            <path d="M414.144,66.769 C407.84,60.529 397.728,60.593 391.488,66.865 C385.28,73.137 385.344,83.281 391.584,89.489 C427.968,125.553 448,173.681 448,225.009 C448,276.337 427.968,324.433 391.584,360.497 C385.344,366.737 385.28,376.881 391.488,383.153 C394.656,386.289 398.752,387.857 402.848,387.857 C406.912,387.857 411.008,386.321 414.144,383.217 C456.64,341.137 480,284.945 480,225.009 C480,165.073 456.64,108.881 414.144,66.769 Z" id="Path"></path>
        </g>
    </g>
</svg>