<?xml version="1.0" encoding="UTF-8"?>
<svg width="512px" height="450px" viewBox="0 0 512 450" version="1.1" xmlns="http://www.w3.org/2000/svg" xmlns:xlink="http://www.w3.org/1999/xlink">
    <!-- Generator: Sketch 58 (84663) - https://sketch.com -->
    <title>supermarket</title>
    <desc>Created with Sketch.</desc>
    <g id="Page-1" stroke="none" stroke-width="1" fill="none" fill-rule="evenodd">
        <g id="supermarket" fill="#FFFFFF" fill-rule="nonzero">
            <path d="M164.960938,300.003906 L164.984375,300.003906 C165.003906,300.003906 165.023438,300 165.042969,300 L437,300 C443.695312,300 449.582031,295.558594 451.421875,289.121094 L511.421875,79.121094 C512.714844,74.59375 511.808594,69.726562 508.976562,65.96875 C506.140625,62.210938 501.707031,60 497,60 L130.367188,60 L119.644531,11.746094 C118.117188,4.882812 112.03125,-2.84217094e-14 105,-2.84217094e-14 L15,-2.84217094e-14 C6.714844,-2.84217094e-14 0,6.714844 0,15 C0,23.285156 6.714844,30 15,30 L92.96875,30 C94.867188,38.550781 144.28125,260.917969 147.125,273.710938 C131.183594,280.640625 120,296.535156 120,315 C120,339.8125 140.1875,360 165,360 L437,360 C445.285156,360 452,353.285156 452,345 C452,336.714844 445.285156,330 437,330 L165,330 C156.730469,330 150,323.269531 150,315 C150,306.742188 156.707031,300.023438 164.960938,300.003906 L164.960938,300.003906 Z M477.113281,90 L425.683594,270 L177.03125,270 L137.03125,90 L477.113281,90 Z" id="Shape"></path>
            <path d="M150,405 C150,429.8125 170.1875,450 195,450 C219.8125,450 240,429.8125 240,405 C240,380.1875 219.8125,360 195,360 C170.1875,360 150,380.1875 150,405 Z M195,390 C203.269531,390 210,396.730469 210,405 C210,413.269531 203.269531,420 195,420 C186.730469,420 180,413.269531 180,405 C180,396.730469 186.730469,390 195,390 Z" id="Shape"></path>
            <path d="M362,405 C362,429.8125 382.1875,450 407,450 C431.8125,450 452,429.8125 452,405 C452,380.1875 431.8125,360 407,360 C382.1875,360 362,380.1875 362,405 Z M407,390 C415.269531,390 422,396.730469 422,405 C422,413.269531 415.269531,420 407,420 C398.730469,420 392,413.269531 392,405 C392,396.730469 398.730469,390 407,390 Z" id="Shape"></path>
        </g>
    </g>
</svg>