<?xml version="1.0" encoding="UTF-8"?>
<svg width="350px" height="292px" viewBox="0 0 350 292" version="1.1" xmlns="http://www.w3.org/2000/svg" xmlns:xlink="http://www.w3.org/1999/xlink">
    <!-- Generator: Sketch 58 (84663) - https://sketch.com -->
    <title>trend</title>
    <desc>Created with Sketch.</desc>
    <g id="Page-1" stroke="none" stroke-width="1" fill="none" fill-rule="evenodd">
        <g id="trend" fill="#007AFF" fill-rule="nonzero">
            <path d="M344.405662,132.362794 L218.008343,5.60440935 C214.400243,1.98608397 209.59134,0 204.463741,0 C199.33045,0 194.524393,1.98893753 190.916293,5.60440935 L179.440372,17.1157064 C175.835118,20.7283246 173.848955,25.5537096 173.848955,30.6986944 C173.848955,35.8408256 175.835118,40.828864 179.440372,44.4414823 L253.178781,118.551521 L18.9083788,118.551521 C8.3458653,118.551521 0,126.843992 0,137.439293 L0,153.713197 C0,164.308498 8.3458653,173.437065 18.9083788,173.437065 L254.015359,173.437065 L179.443218,247.960871 C175.837963,251.579196 173.851801,256.273317 173.851801,261.418302 C173.851801,266.55758 175.837963,271.320186 179.443218,274.935658 L190.919138,286.409858 C194.527238,290.028184 199.333296,292 204.466586,292 C209.594186,292 214.403088,290.002502 218.011188,286.384176 L344.408507,159.628645 C348.025144,155.998905 350.014152,151.153545 350,146.002854 C350.011306,140.83504 348.025144,135.986827 344.405662,132.362794 Z" id="Path"></path>
        </g>
    </g>
</svg>