<?xml version="1.0" encoding="UTF-8"?>
<svg width="435px" height="435px" viewBox="0 0 435 435" version="1.1" xmlns="http://www.w3.org/2000/svg" xmlns:xlink="http://www.w3.org/1999/xlink">
    <!-- Generator: Sketch 58 (84663) - https://sketch.com -->
    <title>tube</title>
    <desc>Created with Sketch.</desc>
    <g id="Page-1" stroke="none" stroke-width="1" fill="none" fill-rule="evenodd">
        <g id="tube" fill="#FFFFFF" fill-rule="nonzero">
            <path d="M428.911169,127.161706 L307.829216,6.09890497 C303.89534,2.16562027 298.666523,0 293.103558,0 C287.539668,0 282.310852,2.16654575 278.3779,6.09890497 C274.444024,10.0321896 272.277152,15.2611445 272.277152,20.8241973 C272.277152,25.5959658 273.882174,30.1169294 276.836746,33.8077388 L25.711009,284.911409 C-8.57110767,319.191142 -8.57018204,374.967896 25.7128602,409.247627 C42.3202996,425.853493 64.4009189,435 87.8866263,435 C111.373259,435 133.453879,425.85442 150.060393,409.24948 L401.18613,158.145808 C404.86546,161.09716 409.399139,162.709344 414.183659,162.709344 C419.746625,162.709344 424.976364,160.542798 428.910242,156.610439 C437.029765,148.491214 437.029765,135.280931 428.911169,127.161706 Z M419.092211,146.793886 C417.781536,148.105289 416.037672,148.827163 414.183659,148.827163 C412.329646,148.827163 410.585782,148.105289 409.275107,146.793886 L407.097127,144.61716 C406.824069,144.182185 406.503805,143.768496 406.125229,143.389975 C405.746649,143.011455 405.331973,142.691239 404.896933,142.418223 L330.73271,68.2660891 C328.021574,65.5562873 323.62674,65.5544362 320.914679,68.2660891 C318.203544,70.976816 318.203544,75.3719148 320.914679,78.0817166 L391.27091,148.427356 L140.242361,399.432927 C126.258124,413.415985 107.664308,421.116893 87.887552,421.116893 C68.1098705,421.116893 49.5160546,413.415059 35.5308913,399.431074 C6.6608634,370.563542 6.65993777,323.593645 35.5290399,294.727037 L286.600166,43.6788951 L301.435972,58.3477333 C304.160992,61.0427274 308.555827,61.0195904 311.253078,58.29313 C313.948478,55.567595 313.924411,51.1724963 311.197541,48.4775025 L292.495427,29.984586 C292.238106,29.590332 291.93728,29.2164386 291.591098,28.8703096 C291.229182,28.5084474 290.834869,28.198412 290.421117,27.9327996 L288.19408,25.7310857 C286.883405,24.4196823 286.161423,22.6770058 286.161423,20.8232718 C286.161423,18.9695379 286.883405,17.225936 288.195006,15.9145326 C289.505681,14.6031292 291.24862,13.8812557 293.103558,13.8812557 C294.957572,13.8812557 296.701436,14.6031292 298.012111,15.9145326 L419.093138,136.977333 C421.799643,139.684359 421.799643,144.087786 419.092211,146.793886 Z" id="Shape"></path>
            <path d="M256.974818,253.15058 C250.742181,246.919521 244.904973,245.871927 240.641169,245.106094 C237.010238,244.454812 234.818744,244.061271 231.66085,240.902785 C228.502032,237.745222 228.10845,235.553035 227.458023,231.923408 C226.693033,227.660976 225.645329,221.823458 219.413616,215.592399 C213.181902,209.36134 207.343771,208.312822 203.080891,207.547912 C199.449959,206.895706 197.257542,206.503089 194.098723,203.343679 C190.939905,200.185193 190.546323,197.993006 189.894049,194.361532 C189.129059,190.099099 188.081355,184.261581 181.848718,178.029598 C180.549712,176.729805 178.786909,176 176.94927,176 C175.11163,176 173.348827,176.730729 172.048898,178.029598 L118.603062,231.475364 C115.896956,234.181186 115.89788,238.568332 118.603062,241.274154 C121.310093,243.979977 125.696775,243.979053 128.402882,241.274154 L175.686297,193.991086 C175.900642,194.850224 176.066944,195.772181 176.252648,196.810536 C177.017638,201.072969 178.065342,206.910487 184.29798,213.14247 C190.529693,219.374453 196.367825,220.422047 200.630705,221.186957 C204.261636,221.839162 206.454054,222.231779 209.612872,225.391189 C212.770766,228.548752 213.164348,230.740939 213.815698,234.37149 C214.580689,238.633922 215.627469,244.47144 221.859182,250.7025 C228.090896,256.933558 233.928103,257.981152 238.191907,258.746986 C239.230372,258.933594 240.151502,259.098955 241.011654,259.313278 L120.683688,379.639692 C111.975919,388.347471 100.37634,393.143863 88.0210092,393.143863 C75.6666026,393.143863 64.0670233,388.348396 55.3592546,379.639692 C37.3487252,361.630131 37.3487252,332.327062 55.3592546,314.317501 L108.806014,260.871735 C111.512121,258.165913 111.511197,253.778767 108.806014,251.072945 C106.098984,248.367122 101.712301,248.368046 99.0061941,251.072945 L45.5594348,304.518711 C22.1468551,327.930681 22.1468551,366.025591 45.5594348,389.437561 C56.8855394,400.763399 71.9654545,407 88.0210092,407 C104.077488,407 119.157403,400.763399 130.483508,389.437561 L256.611725,263.310579 C260.57988,259.341916 258.744089,255.097036 257.217804,253.406474 C257.140196,253.319637 257.057969,253.233723 256.974818,253.15058 L256.974818,253.15058 Z" id="Path"></path>
        </g>
    </g>
</svg>