<?xml version="1.0" encoding="UTF-8"?>
<svg width="471px" height="450px" viewBox="0 0 471 450" version="1.1" xmlns="http://www.w3.org/2000/svg" xmlns:xlink="http://www.w3.org/1999/xlink">
    <!-- Generator: Sketch 58 (84663) - https://sketch.com -->
    <title>vaccine</title>
    <desc>Created with Sketch.</desc>
    <g id="Page-1" stroke="none" stroke-width="1" fill="none" fill-rule="evenodd">
        <g id="vaccine" fill="#FFFFFF" fill-rule="nonzero">
            <path d="M2.01862901,448.067551 C4.71732174,450.64415 9.08338241,450.64415 11.7784819,448.067551 L92.6422327,370.656075 L96.6812878,374.519253 C101.212648,378.860598 108.072574,380.38798 114.149124,378.38587 L137.344942,370.745516 C149.354304,378.867478 166.146567,377.862982 177.013207,367.463708 L365.188614,187.321977 L367.858559,189.877935 C374.7652,196.486274 386.001966,196.489715 392.9122,189.877935 L399.067807,183.981687 C405.974447,177.369909 405.974447,166.612868 399.067807,159.99765 C397.957426,158.934673 390.382401,151.683045 379.950571,141.700016 L394.856265,127.427242 C397.551364,124.850644 397.551364,120.667542 394.856265,118.087503 C392.161166,115.507464 387.791512,115.507464 385.100007,118.087503 L370.194312,132.356837 C358.325096,120.994347 344.623213,107.877431 332.75759,96.5183809 L383.493728,47.9448555 C396.444577,60.3428007 412.564862,75.7748716 420.934044,83.7833112 L407.868204,96.2913379 C405.173104,98.871376 405.173104,103.054479 407.868204,105.631077 C410.563302,108.211116 414.932956,108.211116 417.624461,105.631077 L430.690302,93.1264907 L434.610772,96.8795861 C441.53538,103.505125 452.739806,103.505125 459.664413,96.8795861 L465.82002,90.9833385 C472.72666,84.3715602 472.72666,73.6145193 465.82002,66.9993003 L446.145797,48.1650188 C443.450697,45.5884205 439.084638,45.5884205 436.389538,48.1684586 C433.694439,50.7484976 433.694439,54.9281602 436.389538,57.5081983 L456.063761,76.33904 C457.587391,77.8010616 457.590984,80.1815771 456.063761,81.6435988 L449.904561,87.5364074 C448.380932,88.998429 445.894254,88.998429 444.370624,87.5364074 L379.573257,25.5088409 C378.046034,24.0468193 378.049627,21.6697436 379.573257,20.2077211 L385.732457,14.3114734 C387.259679,12.8494518 389.731984,12.846012 391.269987,14.3149133 L413.621341,35.7120328 C416.316441,38.2886311 420.682501,38.2920718 423.3776,35.708593 C426.072699,33.1319947 426.072699,28.9488923 423.3776,26.3688533 L401.029839,4.97173375 C394.105231,-1.65724458 382.897212,-1.65724458 375.976198,4.97173375 L369.816998,10.8645424 C362.910358,17.4797605 362.910358,28.2368014 369.816998,34.8485797 L373.737469,38.601676 L322.997738,87.1752014 C312.436543,77.0614503 304.814803,69.7651016 303.884096,68.8741281 C296.959488,62.2485896 285.755062,62.2451497 278.830454,68.8741281 L272.674848,74.7669367 C265.75024,81.3959151 265.75024,92.1254355 272.674848,98.750974 L275.3412,101.306932 C268.312382,108.035673 96.2392923,272.762533 87.1657915,281.448663 C75.9541795,292.185063 75.3504773,308.72827 84.237117,320.09076 L76.3063396,342.15525 C74.2185364,347.968936 75.8032544,354.532554 80.3418014,358.880779 L82.885974,361.312896 L2.01862901,438.724372 C-0.672876335,441.30441 -0.672876335,445.484073 2.01862901,448.067551 L2.01862901,448.067551 Z M282.431107,84.1135561 L288.586713,78.2173076 C290.11753,76.7518461 292.593427,76.755286 294.124243,78.2173076 C297.753644,81.6917599 381.704182,162.05824 389.311548,169.340828 C390.835178,170.802851 390.838771,173.179926 389.311548,174.641948 L383.152348,180.534756 C381.628719,181.996777 379.142041,181.996777 377.614818,180.534756 C374.85863,177.896236 287.663193,94.4233898 282.427514,89.4112352 C280.90029,87.9492136 280.896697,85.5755777 282.431107,84.1135561 L282.431107,84.1135561 Z M285.097458,110.650112 L355.432357,177.982237 L343.735627,189.176165 L273.404322,121.847479 L285.097458,110.650112 Z M96.9256435,290.791843 L263.648063,131.187219 L333.979368,198.515905 L318.117812,213.700291 L305.903623,202.007556 C303.208524,199.424078 298.83887,199.427518 296.147364,202.004116 C293.452266,204.584155 293.452266,208.767258 296.143771,211.347296 L308.361553,223.040031 L291.896295,238.802346 L279.682106,227.106171 C276.987007,224.526133 272.617353,224.526133 269.925848,227.106171 C267.227155,229.68621 267.227155,233.869312 269.922254,236.445911 L282.140037,248.142085 L265.674778,263.904401 L253.46059,252.211666 C250.76549,249.631628 246.395836,249.631628 243.700737,252.208226 C241.005638,254.788264 241.005638,258.971367 243.700737,261.551406 L255.914926,273.247581 L239.453261,289.006456 L227.235479,277.313721 C224.543974,274.733683 220.17432,274.730243 217.47922,277.310281 C214.784122,279.890319 214.784122,284.073422 217.47922,286.653461 L229.693409,298.346195 L213.231745,314.10851 L201.013962,302.412336 C198.322457,299.835737 193.952803,299.832298 191.257703,302.412336 C188.562604,304.992375 188.562604,309.175477 191.257703,311.752075 L203.471893,323.44825 L187.006634,339.210566 L174.792445,327.514391 C172.097346,324.934352 167.727692,324.937792 165.036187,327.514391 C162.341087,330.094429 162.341087,334.277532 165.036187,336.85757 L177.250376,348.550305 L167.253355,358.120528 C160.562322,364.525903 149.731618,364.536224 143.029805,358.130848 L96.9256435,313.991549 C90.227424,307.582733 90.227424,297.204098 96.9256435,290.791843 L96.9256435,290.791843 Z M89.3542117,346.451874 L94.9743925,330.80996 L126.000372,360.511364 L109.660885,365.891603 C108.539724,366.259689 107.274824,365.981045 106.437547,365.179513 C92.1678953,351.515629 100.138202,359.149103 90.0980592,349.5376 C89.2643753,348.736068 88.9697116,347.52517 89.3542117,346.451874 Z" id="Shape"></path>
        </g>
    </g>
</svg>