<?xml version="1.0" encoding="UTF-8"?>
<svg width="512px" height="385px" viewBox="0 0 512 385" version="1.1" xmlns="http://www.w3.org/2000/svg" xmlns:xlink="http://www.w3.org/1999/xlink">
    <!-- Generator: Sketch 58 (84663) - https://sketch.com -->
    <title>vibration</title>
    <desc>Created with Sketch.</desc>
    <g id="Page-1" stroke="none" stroke-width="1" fill="none" fill-rule="evenodd">
        <g id="vibration" fill="#8E8E93" fill-rule="nonzero">
            <path d="M91.336,228.712 L38.632,176.008 L91.304,123.336 C97.576,117.064 97.576,106.952 91.336,100.68 L27.336,36.68 C21.096,30.44 10.952,30.44 4.712,36.68 C-1.528,42.92 -1.528,53.064 4.712,59.304 L57.384,112.008 L4.68,164.68 C-1.56,170.92 -1.56,181.064 4.68,187.304 L57.384,240.008 L4.712,292.68 C-1.528,298.92 -1.528,309.064 4.712,315.304 C7.816,318.44 11.912,320.008 16.008,320.008 C20.104,320.008 24.2,318.44 27.336,315.336 L91.336,251.336 C97.576,245.096 97.576,234.952 91.336,228.712 Z" id="Path"></path>
            <path d="M507.336,292.712 L454.632,240.008 L507.304,187.336 C513.576,181.064 513.576,170.952 507.336,164.68 L454.632,112.008 L507.304,59.336 C513.544,53.096 513.544,42.952 507.304,36.712 C501.064,30.472 490.92,30.472 484.68,36.712 L420.68,100.712 C414.44,106.952 414.44,117.096 420.68,123.336 L473.384,176.008 L420.712,228.68 C414.472,234.92 414.472,245.064 420.712,251.304 L484.712,315.304 C487.816,318.44 491.912,320.008 496.008,320.008 C500.104,320.008 504.2,318.44 507.336,315.336 C513.576,309.096 513.576,298.952 507.336,292.712 Z" id="Path"></path>
            <path d="M352.008,0.008 L160.008,0.008 C142.376,0.008 128.008,14.376 128.008,32.008 L128.008,352.008 C128.008,369.672 142.376,384.008 160.008,384.008 L352.008,384.008 C369.672,384.008 384.008,369.672 384.008,352.008 L384.008,32.008 C384.008,14.376 369.672,0.008 352.008,0.008 Z M352.008,320.008 L160.008,320.008 L160.008,64.008 L352.008,64.008 L352.008,320.008 Z" id="Shape"></path>
        </g>
    </g>
</svg>